<svg xmlns="http://www.w3.org/2000/svg" width="13" height="12.97" viewBox="0 0 13 12.97">
  <defs>
    <style>
      .cls-1 {
        fill: #f0b571;
        fill-rule: evenodd;
      }
    </style>
  </defs>
  <path id="Shape_362_copy_3" data-name="Shape 362 copy 3" class="cls-1" d="M934.193,2971.38v-2.2a0.388,0.388,0,0,0-.391-0.39h-2.2a0.372,0.372,0,0,1-.277-0.12l-1.558-1.56a0.4,0.4,0,0,0-.553,0l-1.558,1.56a0.372,0.372,0,0,1-.277.12h-2.2a0.388,0.388,0,0,0-.391.39v2.2a0.381,0.381,0,0,1-.115.28l-1.558,1.56a0.387,0.387,0,0,0,0,.55l1.558,1.56a0.416,0.416,0,0,1,.115.28v2.2a0.4,0.4,0,0,0,.391.4h2.2a0.4,0.4,0,0,1,.276.11l1.559,1.56a0.4,0.4,0,0,0,.553,0l1.558-1.56a0.4,0.4,0,0,1,.277-0.11h2.2a0.4,0.4,0,0,0,.391-0.4v-2.2a0.416,0.416,0,0,1,.115-0.28l1.558-1.56a0.387,0.387,0,0,0,0-.55l-1.558-1.56A0.381,0.381,0,0,1,934.193,2971.38Zm-4.706,3.17a1.05,1.05,0,1,1,1.05-1.05A1.051,1.051,0,0,1,929.487,2974.55Z" transform="translate(-923 -2967.03)"/>
</svg>
