<svg xmlns="http://www.w3.org/2000/svg" width="22.875" height="22.91" viewBox="0 0 22.875 22.91">
  <defs>
    <style>
      .cls-1 {
        fill: #f0b571;
        fill-rule: evenodd;
      }
    </style>
  </defs>
  <path id="Shape_362_copy_2" data-name="Shape 362 copy 2" class="cls-1" d="M371.576,2056.26v-3.89a0.691,0.691,0,0,0-.69-0.69H367a0.685,0.685,0,0,1-.488-0.2l-2.747-2.75a0.688,0.688,0,0,0-.975,0l-2.747,2.75a0.687,0.687,0,0,1-.488.2h-3.885a0.691,0.691,0,0,0-.69.69v3.89a0.675,0.675,0,0,1-.2.48l-2.747,2.75a0.7,0.7,0,0,0,0,.98l2.747,2.74a0.7,0.7,0,0,1,.2.49v3.89a0.691,0.691,0,0,0,.69.69h3.885a0.687,0.687,0,0,1,.488.2l2.747,2.75a0.707,0.707,0,0,0,.975,0l2.747-2.75a0.687,0.687,0,0,1,.488-0.2h3.885a0.691,0.691,0,0,0,.69-0.69v-3.89a0.7,0.7,0,0,1,.2-0.49l2.747-2.74a0.7,0.7,0,0,0,0-.98l-2.747-2.75A0.675,0.675,0,0,1,371.576,2056.26Zm-8.3,5.57a1.85,1.85,0,1,1,1.853-1.85A1.852,1.852,0,0,1,363.278,2061.83Z" transform="translate(-351.844 -2048.53)"/>
</svg>
