<svg xmlns="http://www.w3.org/2000/svg" width="87" height="96" viewBox="0 0 87 96">
  <defs>
    <style>
      .cls-1 {
        fill: #fff;
        fill-rule: evenodd;
      }
    </style>
  </defs>
  <path class="cls-1" d="M352.7,77.495a4.957,4.957,0,0,0-2.487-2.2,13.5,13.5,0,0,1-4.478-2.784,7.709,7.709,0,0,1-1.387-1.931,7.852,7.852,0,0,1-1.024-1.029c-1.45-1.25-3.262-1.677-4.916-2.421a12.6,12.6,0,0,0-1.749-.38,13.131,13.131,0,0,1-2.033-.76,0.439,0.439,0,0,1,.11-0.649,8.224,8.224,0,0,0,1.214-1.6v-0.38c-0.536-.728-1.434-0.474-2.159-0.522a1.49,1.49,0,0,1,.41-1.076c0.047-.474.5-0.665,0.378-1.2,0.5-.822-0.126-1.677-0.031-2.516a1.66,1.66,0,0,1,.22-0.57,2.822,2.822,0,0,1,.536-1.55c0.394-1.124,1.182-2.089,1.512-3.228,0,0,.4-1.115.725-1.978,0.52-1.519.977-3.434,0.032-4.906-0.268-.728-1.245-0.681-1.544-1.393a2,2,0,0,1-.347-0.95,1.853,1.853,0,0,1,.788-1.709c-0.032-.411.425-0.617,0.378-1.028a6.051,6.051,0,0,0,.426-2.849l-0.079-.111a1.264,1.264,0,0,0-.221-0.839c0.016-.506-0.63-0.554-0.756-1a1.666,1.666,0,0,1-.914-0.411c-0.867.126-1.986-.174-2.647,0.569a9.45,9.45,0,0,0-.757,2.279c0.063,0.506-.283,1.092,0,1.6-0.094.3,0.5,1.446,0.363,1.779-1.04-.127-1.891-2-2.931-2.08a3.215,3.215,0,0,1-.457-0.506,13.5,13.5,0,0,0-1.859-4.02,18.851,18.851,0,0,1-1.135-2.738,7.935,7.935,0,0,0-.677-1.741c-0.568-.665-0.8-1.614-1.7-1.978-0.111.079-.3,0.142-0.221,0.348a1.7,1.7,0,0,1,.788,1.329,2.07,2.07,0,0,1-.678-0.158c-0.251.079-.125,0.459-0.188,0.6-0.536-.111-0.237.522-0.489,0.728a1.287,1.287,0,0,0,.268.918,5.714,5.714,0,0,0,.977,1.092c0.819,0.475.662,1.487,0.946,2.279a8.874,8.874,0,0,0,1.48,4.526,3.374,3.374,0,0,0,.757,1.472c0.551,0.158,1.052,1.208,1.891,2.247a5.775,5.775,0,0,1,.677.95c0.095,1.171-.614,2.184-0.677,3.387a10.46,10.46,0,0,1-.308,3.373,13.422,13.422,0,0,1-1.552.188,3.974,3.974,0,0,0-.756.111c-1.088.235-2.553-.158-2.836,0.127-0.25.212-.542,0.707-0.947,1.106-0.13.3-.956-0.008-0.956-0.008a5.252,5.252,0,0,0,.437-1.747,2.056,2.056,0,0,0,.489-1.63,1.422,1.422,0,0,0,.52-0.617c0.173-.19-0.205-0.649.189-0.57a3.467,3.467,0,0,0-.3-0.76,2.28,2.28,0,0,1,.457-0.759,2.726,2.726,0,0,1,.032-1.662,1.1,1.1,0,0,0,.189-0.95c0.252,0.016.221-.459,0.488-0.348V44.152a0.864,0.864,0,0,1-.33-0.681c0.078-.19.189,0,0.3,0,0.173-.158-0.205-0.221-0.079-0.348l-0.11-.111,0.079-.079c-0.032-.19.236-0.7-0.111-0.839,0.048-.522-0.457-1,0.032-1.472a13.844,13.844,0,0,1-.378-2.706l-0.52-.87,0.189-.158a2.1,2.1,0,0,0-.756-1.329,5.7,5.7,0,0,1-1.182-.9,16.1,16.1,0,0,0-.221-3.719,0.46,0.46,0,0,0-.3.221c-0.394.775-.9,1.5-1.213,2.31a32.018,32.018,0,0,1-.757-3.292,0.833,0.833,0,0,0-.346.19c-0.489.7-.41,1.646-0.836,2.39a2.174,2.174,0,0,1-.409-0.111,0.2,0.2,0,0,1-.347-0.047,0.5,0.5,0,0,0-.409.269l-0.079-.079a1.434,1.434,0,0,0-1.087-.143v0.063a0.272,0.272,0,0,0,.22.079c0.142,0.127.489,0.348,0.189,0.538a10.994,10.994,0,0,0-1.623.269c-1.091.185-1.539,0.314-4.85,0.979-2.678.574-3.285,0.541-4.262,1.143-0.727.749-.429,1.245-0.915,2.031-0.095.807,0.179,0.358,0.148,1.228,0.252,0.6,1.282.066,1.85,0.145a0.722,0.722,0,0,1,.439.212,4.043,4.043,0,0,1-.887.212c-0.347.19-1.245,0.222-.9,0.918a1.731,1.731,0,0,0,1.166.649,0.8,0.8,0,0,1,.567-0.047c-0.551,1.424.016,2.928,0.457,4.225a8.869,8.869,0,0,0,2.726,3.751,22.945,22.945,0,0,1-1.591,2.279c-0.646,1.693-2.49,2.722-3.562,3.988a1.093,1.093,0,0,1-.409.807c-0.347.839-1.024,1.6-1.024,2.547a27.563,27.563,0,0,0-.536,3.941l0.079,0.158c0.016,0.206.157,0.586-.11,0.681a0.64,0.64,0,0,1-.458-0.348c-0.819-.507-1.591-1.44-2.568-1.551a22.551,22.551,0,0,0-4.27,2.057,11.312,11.312,0,0,1-.236,1.281,3.587,3.587,0,0,0-.756.349c-0.82.49-2.081,0.791-2.332,1.852a42.089,42.089,0,0,1-.347,5.808c-0.047,1.408-.678,2.658-0.457,4.067l0.756,1.108a13.736,13.736,0,0,0,3.372,4.747l0.457,0.079a4.319,4.319,0,0,0,1.009-2.516c0.126-.554.535-1.235,0.126-1.789a1.686,1.686,0,0,0-.883-1.06c-0.362-.427-1.071-0.079-1.465-0.459-0.662-.38-0.189-1.06-0.189-1.63a8.676,8.676,0,0,1-.111-3.371,10.98,10.98,0,0,1,.788-3.117c0.268-.079.678-0.539,0.867-0.032a30.093,30.093,0,0,1,.425,4.209c-0.441,1.045.772,1.709,0.568,2.8,0.378,0.68,1.2.554,1.623,1.139,0.488,0.269.882,0.839,1.512,0.649a6.338,6.338,0,0,0,.457-2.358,4.508,4.508,0,0,0-.079-1.741,2.388,2.388,0,0,0-1.323-.491c-0.126-.269-0.362.079-0.457-0.237-0.2-.3.189-0.475,0.346-0.681a1.143,1.143,0,0,0,0-.569c0.2-.9-0.535-1.694-0.378-2.58a8.484,8.484,0,0,0,1.734.76,35.154,35.154,0,0,0,5.4,2.579l2.269-.032c0.946,0.238,1.812.427,2.726,0.712a24.509,24.509,0,0,0,3.183,2.327c0.772,0.617,1.828.839,2.6,1.471,0.3,0.285.914,0.206,0.992,0.649l0.189-.079a0.215,0.215,0,0,1,.142.238,5.789,5.789,0,0,1-1.4.681,6,6,0,0,0-.331,1.788c0.347,0.855,1.134-.016,1.78.142,0.142,0.032.3,0.285,0.442,0.079,0.252,0.031.583-.222,0.725,0.079a0.352,0.352,0,0,0,.456-0.158,12.11,12.11,0,0,1,1.97-.3,3.414,3.414,0,0,1,2.6.569,18.382,18.382,0,0,1,2.616,1.029l-0.048.11h0.111c0.819-.032,1.622.7,2.347,0.427a5.493,5.493,0,0,0-.378.87c-0.6,1.171.315,2.279,0.378,3.45,0.694,1.488,1.5,2.912,2.08,4.446a0.659,0.659,0,0,0,.158.57,2.181,2.181,0,0,1-.111,1.978c-1.213.933-2.694,1.187-3.939,2.01-1.622.934-3.5,1.314-5.026,2.468-0.158.032-.3,0.285-0.457,0.08l-0.3.459a3.077,3.077,0,0,1-1.324.823c-1.511-.013-2.106,1.324-2.97,2.37-0.368-.1-0.764-0.21-1.2-0.336-1.615-.473-3.664-4.545-6.786-2.757-2.634,1.509-1.429-2.857-6.318-3.38-5.261-.562-14.263,11.083-14.965,11.818h63.661c-9.794-5.291-11.777-3.035-14.215-3.117-1.393-.048-4.156-1.329-6.73-2.365l0.028-.286c0.3-.633-0.315-1.678.378-2.248a1.314,1.314,0,0,1,.914-0.11c0.583-.19.835,0.522,1.387,0.269A2.319,2.319,0,0,0,334.2,98.3c1.244-1.266,2.537-2.1,3.86-3.228a14.109,14.109,0,0,0,2.38-1.519l0.157,0.031a12.01,12.01,0,0,1-1.51,1.612,1.978,1.978,0,0,0-.57,1.047,0.734,0.734,0,0,1,.568-0.332c-1.19,1.17-1.5,2.445-1.29,2.134a1.323,1.323,0,0,1,.574-0.444,2.934,2.934,0,0,0-.577,1.617c0.725-1.931,2.884-1.963,4.207-3.038a3.748,3.748,0,0,0-.646,1.519,7.166,7.166,0,0,1,2.269-1.566c1.922-1.037,2.884-2.358,4.349-3.56l0.788-1.029h0.126a20.28,20.28,0,0,0,2.222-2.659c0.347-.87.866-1.661,1.244-2.516,0.873-2.441,1.343-3.86,1.075-6.392A6.167,6.167,0,0,0,352.7,77.495ZM309.965,48.25c-1.072-.316-1.439-1.452-2.08-2.31A8.6,8.6,0,0,1,307,41.626a7.726,7.726,0,0,1,.315,1.266c0.725,1.614.525,2.215,2.426,4.678A1.7,1.7,0,0,1,309.965,48.25Zm1.319-1.611a1.8,1.8,0,0,1-.559.815,7.428,7.428,0,0,1-1.248-1.324,13.308,13.308,0,0,1-1.624-3.846,2.916,2.916,0,0,1,0-1.381,2.364,2.364,0,0,0,.406-0.217l0.539-.02,1.806,0.146a13.16,13.16,0,0,1,1.818,1.159,13.341,13.341,0,0,0,1.715.507C314.213,42.454,311.946,45.753,311.284,46.64Zm16.155,9.476c-0.347-.032-0.331.506-0.536,0.76a0.318,0.318,0,0,1-.22.459c-0.993-.222-1.371-1.408-2.506-1.377a1.647,1.647,0,0,0-.788.57c-1.181-.19-1.2-1.44-1.89-2.168a1.915,1.915,0,0,0,1.292-.032,0.861,0.861,0,0,0,.457.459c0.22-.016.5-0.38,0.741-0.079l0.668-.117c0.441-.38.578-1.071,1.753-0.554,0.613,0.27,1.115.016,1.714,0.316C328.234,54.922,327.6,55.609,327.439,56.115Zm3.971,40.89a7.582,7.582,0,0,1-2.616,1.108,2.1,2.1,0,0,1-1.134.6c-0.335.543-.78,1.019-1.105,1.539a3.021,3.021,0,0,0-.959-0.005c-2.56.506-3.028,1.363-3.909,1.778-0.028-.105-0.056-0.208-0.078-0.305a1.458,1.458,0,0,1,.567-1.25,1.187,1.187,0,0,1,.946.221c0.252-.316.882,0.064,0.914-0.522a13.578,13.578,0,0,0,2.032-1.187c0.174-.38.615-0.221,0.835-0.522A4.015,4.015,0,0,1,328.274,98a15.437,15.437,0,0,1,2.269-1.187,12.786,12.786,0,0,0,1.324-.491A1.735,1.735,0,0,0,331.41,97.006Zm5.1-3.988a12.783,12.783,0,0,0-.757-2.279,7.8,7.8,0,0,0-.346-1.551c0.536,1.029,1.718,1.788,1.7,3.039A3.593,3.593,0,0,1,336.515,93.018Zm12.479-11.694a7.555,7.555,0,0,1-1.244,1.868l-0.048.189c-1.2,1.488-3.9,2.5-4.087,2.679-0.032.1,0.184,0.111,0.369,0.186l0.259,0.167c0.055,0.427-1.758.973-1.725,1.036a6.076,6.076,0,0,0,1.56-.19c-0.677.522-1.481,0.76-2.158,1.282l-0.29.236c-0.078.475,2.069-.316,0.557,0.824a0.777,0.777,0,0,1,.032.269,1.508,1.508,0,0,1-.756.491c-0.315.016-.507,0.517-0.757-0.443a3.472,3.472,0,0,0-.567-0.728c-0.221-1.06-1.655-1.772-1.434-2.959,0.11-.348.63-0.174,0.6-0.617a14.747,14.747,0,0,0,5.72-4.779,6.237,6.237,0,0,1,.646-1.25,16.085,16.085,0,0,0,.756-3.719,3.742,3.742,0,0,1,1.664,1.089A4.526,4.526,0,0,1,348.994,81.324Zm-71.2-19.74c-0.317.033-.354,0.1-0.437,0.559l-0.054.313a0.311,0.311,0,0,1-.26.306,0.272,0.272,0,0,1-.323-0.3L276,55.625l1.541-.31a3.058,3.058,0,0,1,.372-0.069,0.433,0.433,0,0,1,.549.366,0.408,0.408,0,0,1-.26.438l-0.72.5a0.406,0.406,0,0,0-.224.507l0.278,2.649,3.33-.352-0.228-2.172a0.435,0.435,0,0,0-.28-0.453l-0.477-.1a0.444,0.444,0,0,1-.452-0.42c-0.019-.174.047-0.386,0.494-0.433l2.306-.244a0.4,0.4,0,0,1,.507.385,0.413,0.413,0,0,1-.361.448l-0.432.192a0.5,0.5,0,0,0-.2.606l0.218,2.071,3.59-.38c0.317-.034.354-0.1,0.436-0.559l0.055-.313a0.31,0.31,0,0,1,.26-0.306,0.273,0.273,0,0,1,.323.3l0.355,3.388a0.272,0.272,0,0,1-.253.363,0.309,0.309,0,0,1-.317-0.244l-0.118-.3c-0.178-.435-0.227-0.488-0.544-0.455Zm-0.307-11.563,0.165-1.227a1.535,1.535,0,0,1,1.949-1.337,1.82,1.82,0,0,1,1.723,2.2l-0.116.866Zm7.736,2.956c0.317,0.043.352,0.106,0.421,0.571l0.046,0.315a0.31,0.31,0,0,0,.25.313,0.272,0.272,0,0,0,.332-0.293l0.437-3.261a0.273,0.273,0,0,0-.242-0.371,0.308,0.308,0,0,0-.324.235l-0.127.291c-0.174.314-.225,0.366-0.541,0.324l-3.175-.429,0.135-1.01,4.607-1.522,0.333-2.482a0.262,0.262,0,0,0-.222-0.309,0.4,0.4,0,0,0-.368.347l-0.125.277a0.615,0.615,0,0,1-.454.438L282.157,47.7a2.909,2.909,0,0,0-2.42-2.134c-1.968-.266-2.906,1.061-3.125,2.692L276.043,52.5a0.274,0.274,0,0,0,.243.371,0.309,0.309,0,0,0,.324-0.235l0.127-.291c0.189-.43.24-0.482,0.556-0.439Zm-5.858-11.718c-0.3-.121-0.358-0.084-0.648.285l-0.2.25a0.307,0.307,0,0,1-.372.146,0.273,0.273,0,0,1-.143-0.42l2.586-6.362,1.5,0.459a3.034,3.034,0,0,1,.36.116,0.435,0.435,0,0,1,.311.583,0.405,0.405,0,0,1-.435.262l-0.871.1a0.4,0.4,0,0,0-.435.34l-1,2.467,3.1,1.271,0.821-2.022a0.437,0.437,0,0,0-.034-0.533l-0.375-.311a0.448,0.448,0,0,1-.2-0.585c0.066-.162.223-0.318,0.639-0.147l2.147,0.88a0.4,0.4,0,0,1,.266.58,0.413,0.413,0,0,1-.53.223l-0.47-.036a0.5,0.5,0,0,0-.461.44l-0.783,1.928,2.925,1.2c0.309,0.126.476,0.179,0.624-.185l0.854-2.1a0.632,0.632,0,0,0-.07-0.674l-0.669-1.091a0.53,0.53,0,0,1-.109-0.5,0.482,0.482,0,0,1,.518-0.275,2.487,2.487,0,0,1,.392.27l1.572,1.179-2.619,6.443a0.272,0.272,0,0,1-.394.2A0.309,0.309,0,0,1,287,45.27l0.034-.316c0.049-.468.031-0.538-0.265-0.659Zm4.531-9.529c-0.257-.19-0.326-0.169-0.7.116l-0.251.194a0.308,0.308,0,0,1-.4.049,0.274,0.274,0,0,1-.035-0.442l4.067-5.526,1.345,0.817a3.072,3.072,0,0,1,.321.2,0.436,0.436,0,0,1,.158.642,0.4,0.4,0,0,1-.486.146l-0.868-.119a0.4,0.4,0,0,0-.506.222l-1.577,2.142,2.693,2,1.293-1.756a0.439,0.439,0,0,0,.1-0.525l-0.287-.394a0.447,0.447,0,0,1-.051-0.617c0.1-.14.294-0.252,0.655,0.016l1.865,1.385a0.4,0.4,0,0,1,.115.628c-0.147.2-.294,0.18-0.568,0.086l-0.447-.151a0.5,0.5,0,0,0-.555.313l-1.232,1.674,2.541,1.887c0.269,0.2.417,0.291,0.65-.025l1.344-1.827a0.632,0.632,0,0,0,.1-0.67l-0.38-1.223a0.528,0.528,0,0,1,.017-0.512,0.481,0.481,0,0,1,.57-0.138,2.524,2.524,0,0,1,.313.359l1.234,1.532-4.119,5.6a0.271,0.271,0,0,1-.431.1,0.312,0.312,0,0,1-.07-0.4l0.111-.3c0.163-.441.162-0.514-0.094-0.7Zm8.24-9.475,0.947-.745c1.792-1.409,3.749-.175,4.965,1.384,1.385,1.776,1.718,3.715.018,5.053l-0.377.3c-0.331.261-.575,0.4-0.932-0.062Zm3.486,7.54c0.2,0.252.177,0.322-.1,0.7l-0.186.257a0.311,0.311,0,0,0-.038.4,0.271,0.271,0,0,0,.441.023l2.831-2.226c2.853-2.244,2.828-5.109.951-7.517-1.466-1.88-4.154-3.131-7.315-.645l-2.83,2.226a0.273,0.273,0,0,0-.084.435,0.307,0.307,0,0,0,.395.059l0.294-.12c0.434-.175.506-0.177,0.7,0.075Zm13.441-12.56c0.686,1.856.909,4.507-1.333,5.343-2.093.781-3.635-.88-4.311-2.709-0.687-1.856-.751-4.41,1.478-5.242C306.935,13.866,308.417,15.487,309.063,17.234Zm-7.63,3.2c1.035,2.8,3.735,4.369,6.616,3.294a5.212,5.212,0,0,0,3.034-6.972,5.026,5.026,0,0,0-6.7-3.217A5.286,5.286,0,0,0,301.433,20.438Zm14.325-6.957h-0.03l-0.406,6.351c0,0.087-.026.408-0.025,0.51a0.344,0.344,0,0,0,.292.333l0.537,0.171a0.274,0.274,0,0,1,.249.333c0,0.146-.027.248-0.361,0.25l-2.957.02a0.265,0.265,0,0,1-.292-0.3c0-.175.1-0.219,0.3-0.279l0.274-.089c0.435-.134.463-0.192,0.5-0.731l0.585-7.793a0.463,0.463,0,0,0-.395-0.507l-0.2-.086a1.187,1.187,0,0,1-.306-0.144,0.322,0.322,0,0,1-.073-0.16,0.289,0.289,0,0,1,.346-0.279l2.566-.018,2.879,7.711,3.006-7.751L324.975,11a0.214,0.214,0,0,1,.263.217c0,0.218-.057.248-0.129,0.277l-0.434.178a0.462,0.462,0,0,0-.417.411c0,0.073.015,0.174,0.016,0.276l0.6,7.843a0.36,0.36,0,0,0,.293.406l0.566,0.171a0.288,0.288,0,0,1,.234.29c0,0.291-.186.292-0.36,0.294l-3.291.022c-0.188,0-.334-0.027-0.335-0.274a0.283,0.283,0,0,1,.273-0.308l0.564-.179a0.5,0.5,0,0,0,.258-0.438c0-.16-0.032-0.5-0.048-0.786l-0.4-6.054H322.6L319.537,21.4l-0.87.006ZM339.292,17l1.075,0.6a1.545,1.545,0,0,1,.525,2.312,1.81,1.81,0,0,1-2.671.8l-0.76-.426Zm-5.575,6.145c-0.155.28-.227,0.289-0.683,0.184l-0.308-.073a0.308,0.308,0,0,0-.382.12,0.273,0.273,0,0,0,.15.417l2.86,1.6a0.272,0.272,0,0,0,.433-0.091,0.312,0.312,0,0,0-.1-0.389l-0.223-.226c-0.227-.277-0.257-0.344-0.1-0.624l1.561-2.809,0.886,0.5-0.279,4.862,2.177,1.221a0.261,0.261,0,0,0,.368-0.094,0.4,0.4,0,0,0-.186-0.471l-0.211-.218a0.619,0.619,0,0,1-.24-0.585l0.291-4.256a2.9,2.9,0,0,0,2.864-1.479c0.968-1.741.083-3.105-1.348-3.907l-3.721-2.086a0.271,0.271,0,0,0-.432.091,0.311,0.311,0,0,0,.1.389l0.223,0.225c0.329,0.334.358,0.4,0.2,0.68ZM346.39,21.8c0.207-.243.191-0.314-0.065-0.707l-0.174-.265a0.31,0.31,0,0,1-.021-0.4,0.272,0.272,0,0,1,.442,0l2.576,2.217a0.274,0.274,0,0,1,.064.439,0.308,0.308,0,0,1-.4.041l-0.287-.132c-0.426-.194-0.5-0.2-0.706.044l-5.206,6.1c-0.208.243-.192,0.314,0.064,0.707l0.175,0.265a0.312,0.312,0,0,1,.021.4,0.271,0.271,0,0,1-.442,0l-2.576-2.216a0.273,0.273,0,0,1-.065-0.439,0.308,0.308,0,0,1,.4-0.041l0.288,0.132c0.426,0.194.5,0.2,0.706-.044Zm6.057,5.975,0.722,0.967c1.366,1.828.1,3.768-1.48,4.956-1.8,1.354-3.734,1.649-5.03-.086l-0.287-.384c-0.252-.338-0.383-0.585.081-0.935Zm-7.578,3.345c-0.255.192-.324,0.172-0.7-0.11l-0.253-.192a0.307,0.307,0,0,0-.4-0.046,0.274,0.274,0,0,0-.032.442l2.158,2.888c2.176,2.911,5.028,2.945,7.463,1.11,1.9-1.433,3.2-4.106.793-7.332l-2.158-2.888a0.271,0.271,0,0,0-.432-0.093,0.31,0.31,0,0,0-.067.4l0.113,0.3c0.166,0.44.166,0.513-.089,0.7Zm13.1,5.459c0.3-.116.316-0.187,0.274-0.655l-0.03-.316a0.31,0.31,0,0,1,.17-0.364,0.272,0.272,0,0,1,.391.206l2.492,6.4-1.4.708a3.071,3.071,0,0,1-.34.165,0.433,0.433,0,0,1-.626-0.207,0.408,0.408,0,0,1,.136-0.491l0.562-.674a0.405,0.405,0,0,0,.082-0.548l-0.966-2.481L355.6,39.542l0.792,2.034a0.434,0.434,0,0,0,.39.363l0.485-.034a0.445,0.445,0,0,1,.547.286c0.063,0.163.056,0.384-.363,0.549l-2.16.848a0.4,0.4,0,0,1-.59-0.237,0.413,0.413,0,0,1,.23-0.528l0.366-.3a0.5,0.5,0,0,0,.032-0.638l-0.756-1.939L351.625,41.1c-0.31.122-.467,0.2-0.324,0.565l0.823,2.115a0.63,0.63,0,0,0,.514.439l1.233,0.329a0.524,0.524,0,0,1,.423.287,0.486,0.486,0,0,1-.187.558,2.5,2.5,0,0,1-.469.075l-1.948.234-2.524-6.481a0.274,0.274,0,0,1,.148-0.418,0.309,0.309,0,0,1,.371.152l0.192,0.253c0.285,0.373.346,0.411,0.643,0.294Zm3.55,11.945,0.147,1.229a1.539,1.539,0,0,1-1.554,1.785,1.815,1.815,0,0,1-2.217-1.7l-0.1-.867ZM353.3,47.6c-0.316.038-.366-0.014-0.549-0.447l-0.123-.293a0.309,0.309,0,0,0-.32-0.24,0.274,0.274,0,0,0-.249.367l0.39,3.267a0.272,0.272,0,0,0,.327.3,0.308,0.308,0,0,0,.255-0.309l0.051-.314c0.089-.348.126-0.411,0.442-0.449L356.7,49.1l0.121,1.012-4.081,2.632,0.3,2.486a0.26,0.26,0,0,0,.291.244,0.4,0.4,0,0,0,.27-0.429l0.052-.3a0.617,0.617,0,0,1,.33-0.538l3.6-2.266a2.9,2.9,0,0,0,2.875,1.458c1.972-.237,2.55-1.758,2.355-3.392l-0.506-4.25a0.273,0.273,0,0,0-.328-0.3,0.31,0.31,0,0,0-.255.309l-0.05.314c-0.076.464-.113,0.527-0.429,0.565Zm2.029,7.952a1.3,1.3,0,0,1,.232.012,0.493,0.493,0,0,1,.328.593,0.416,0.416,0,0,1-.346.356L354.216,57a1.513,1.513,0,0,0-.721,1.355,1.587,1.587,0,0,0,1.282,1.844c2.32,0.262,2.509-4.3,5.736-3.939,1.858,0.21,2.65,2,2.464,3.662a4.726,4.726,0,0,1-.941,2.414l-1.564.029a1.283,1.283,0,0,1-.246-0.013,0.457,0.457,0,0,1-.334-0.536,0.54,0.54,0,0,1,.492-0.486l0.815-.245a1.1,1.1,0,0,0,.669-1.155,1.5,1.5,0,0,0-1.225-1.838c-1.858-.209-2.5,4.391-5.457,4.058-2.088-.235-3.073-2.133-2.859-4.043a4.684,4.684,0,0,1,.994-2.5Z" transform="translate(-276 -11)"/>
</svg>
