<svg xmlns="http://www.w3.org/2000/svg" xmlns:xlink="http://www.w3.org/1999/xlink" width="214" height="229" viewBox="0 0 214 229">
  <defs>
    <style>
      .cls-1 {
        fill: #fff;
        fill-rule: evenodd;
        filter: url(#filter);
      }
    </style>
    <filter id="filter" x="854" y="980" width="214" height="229" filterUnits="userSpaceOnUse">
      <feOffset result="offset" in="SourceAlpha"/>
      <feGaussianBlur result="blur" stdDeviation="5.916"/>
      <feFlood result="flood"/>
      <feComposite result="composite" operator="in" in2="blur"/>
      <feBlend result="blend" in="SourceGraphic"/>
    </filter>
  </defs>
  <path id="Shape_361_copy" data-name="Shape 361 copy" class="cls-1" d="M1015.83,1124.82c-0.8-.99-1.34-2.52-4.15-3.66a22.7,22.7,0,0,1-7.46-4.64,13.051,13.051,0,0,1-2.31-3.22,13.892,13.892,0,0,1-1.71-1.72c-2.413-2.08-5.433-2.79-8.19-4.03-1.051-.03-1.813-0.74-2.915-0.63-1.1-.51-2.364-0.58-3.388-1.27a0.729,0.729,0,0,1,.184-1.08,13.722,13.722,0,0,0,2.022-2.67v-0.63c-0.893-1.21-2.39-.79-3.6-0.87-0.262-.66.447-1.26,0.683-1.79,0.079-.79.84-1.11,0.63-2.01,0.841-1.37-.21-2.79-0.052-4.19a2.809,2.809,0,0,1,.368-0.95,4.664,4.664,0,0,1,.892-2.58c0.657-1.88,1.97-3.49,2.521-5.38,0,0,.664-1.86,1.208-3.3,0.867-2.53,1.628-5.72.053-8.18-0.447-1.21-2.075-1.13-2.574-2.32a3.32,3.32,0,0,1-.578-1.58c-0.209-1.29.5-2.06,1.313-2.85-0.052-.69.71-1.03,0.631-1.71a10.106,10.106,0,0,0,.709-4.75l-0.131-.19c-0.158-.47.078-1.16-0.368-1.39,0.026-.85-1.051-0.93-1.261-1.67a2.751,2.751,0,0,1-1.523-.68c-1.444.21-3.309-.29-4.412,0.95-0.341,1.29-1.234,2.37-1.26,3.8,0.105,0.84-.473,1.82,0,2.66-0.158.5,0.841,2.41,0.6,2.96-1.733-.21-3.151-3.33-4.885-3.46a5.6,5.6,0,0,1-.761-0.84,22.4,22.4,0,0,0-3.1-6.7c-0.63-1.64-1.5-2.83-1.891-4.57-0.551-.97-0.368-2.05-1.129-2.9-0.945-1.11-1.34-2.69-2.836-3.29-0.185.13-.5,0.23-0.368,0.58a2.827,2.827,0,0,1,1.313,2.21c-0.342.21-.683-0.32-1.13-0.26-0.419.13-.209,0.76-0.314,1-0.893-.19-0.394.87-0.814,1.21a2.142,2.142,0,0,0,.446,1.53c0.656,0.45.761,1.45,1.628,1.82,1.366,0.79,1.1,2.48,1.576,3.8-0.105,2.9,1.234,5.2,2.468,7.54a5.618,5.618,0,0,0,1.261,2.46c0.919,0.26,1.753,2.01,3.151,3.74a9.557,9.557,0,0,1,1.13,1.58c0.157,1.96-1.024,3.64-1.13,5.65,0.342,1.69-.194,3.41-0.512,5.62a21.179,21.179,0,0,1-2.587.31,6.537,6.537,0,0,0-1.26.19c-1.814.39-4.255-.27-4.727,0.21-0.416.35-.9,1.18-1.578,1.84-0.217.5-1.593-.01-1.593-0.01a8.757,8.757,0,0,0,.728-2.91c0.841-.58.71-1.74,0.815-2.72a2.393,2.393,0,0,0,.866-1.03c0.289-.32-0.341-1.08.315-0.95a5.65,5.65,0,0,0-.5-1.26,3.69,3.69,0,0,1,.761-1.27,4.536,4.536,0,0,1,.053-2.77c0.577-.34.21-1.05,0.315-1.58,0.42,0.02.367-.77,0.814-0.58v-0.19c-0.526-.13-0.342-0.76-0.552-1.13,0.131-.32.316,0,0.5,0,0.288-.27-0.342-0.37-0.132-0.58l-0.184-.19,0.132-.13c-0.053-.31.394-1.16-0.185-1.4,0.079-.87-0.761-1.66.053-2.45a22.985,22.985,0,0,1-.63-4.51l-0.867-1.45,0.316-.26a3.494,3.494,0,0,0-1.261-2.22,9.176,9.176,0,0,1-1.969-1.5,26.881,26.881,0,0,0-.369-6.2,0.763,0.763,0,0,0-.5.37c-0.657,1.29-1.5,2.51-2.023,3.85a53.657,53.657,0,0,1-1.26-5.49,1.461,1.461,0,0,0-.577.32c-0.814,1.16-.683,2.74-1.393,3.98-0.315.19-.446-0.34-0.682-0.18a0.34,0.34,0,0,1-.578-0.08,0.831,0.831,0,0,0-.683.45l-0.131-.13a2.366,2.366,0,0,0-1.812-.24v0.1a0.447,0.447,0,0,0,.367.14c0.237,0.21.815,0.58,0.316,0.89a17.87,17.87,0,0,0-2.7.45c-1.819.31-2.566,0.52-8.084,1.63-4.464.96-5.475,0.9-7.1,1.91-1.212,1.24-.715,2.07-1.525,3.38-0.158,1.35.3,0.6,0.246,2.05,0.42,1,2.138.11,3.083,0.24a1.218,1.218,0,0,1,.732.36,7.041,7.041,0,0,1-1.478.35c-0.578.31-2.074,0.37-1.5,1.53,0.315,0.76,1.261.79,1.943,1.08a1.328,1.328,0,0,1,.946-0.08c-0.919,2.37.026,4.88,0.762,7.04,0.761,2.51,2.547,4.38,4.543,6.25a38.532,38.532,0,0,1-2.653,3.8c-1.076,2.82-4.149,4.54-5.935,6.65a1.826,1.826,0,0,1-.682,1.34c-0.578,1.4-1.708,2.67-1.708,4.25a45.966,45.966,0,0,0-.893,6.57l0.132,0.26c0.026,0.34.263,0.98-.184,1.13a1.044,1.044,0,0,1-.762-0.58c-1.365-.84-2.652-2.4-4.28-2.58-2.416,1.08-4.937,1.84-7.117,3.43a18.608,18.608,0,0,1-.394,2.13,6.3,6.3,0,0,0-1.26.58c-1.366.82-3.467,1.32-3.887,3.09a70.022,70.022,0,0,1-.577,9.68c-0.079,2.35-1.13,4.43-.762,6.78l1.26,1.84a22.913,22.913,0,0,0,5.62,7.92l0.762,0.13c1.155-1.06,1.392-2.69,1.681-4.2,0.21-.92.893-2.05,0.21-2.98a2.808,2.808,0,0,0-1.471-1.76c-0.6-.72-1.786-0.14-2.442-0.77-1.1-.63-0.316-1.76-0.316-2.72a14.423,14.423,0,0,1-.183-5.61,18.286,18.286,0,0,1,1.313-5.2c0.446-.13,1.129-0.9,1.444-0.05a50.276,50.276,0,0,1,.709,7.01c-0.735,1.75,1.287,2.85.946,4.67,0.63,1.14,2,.93,2.7,1.9,0.814,0.45,1.47,1.4,2.521,1.08,0.682-1.1.551-2.58,0.761-3.93,0.29-1.88-.105-1.92-0.131-2.9a4.04,4.04,0,0,0-2.206-.82c-0.21-.44-0.6.14-0.762-0.39-0.341-.5.315-0.79,0.578-1.14a1.893,1.893,0,0,0,0-.94c0.342-1.51-.893-2.83-0.63-4.3a14.167,14.167,0,0,0,2.889,1.26c2.836,1.87,5.961,2.96,9.007,4.3l3.782-.05c1.575,0.39,3.02.71,4.543,1.18a40.305,40.305,0,0,0,5.305,3.88c1.286,1.03,3.046,1.4,4.333,2.46,0.5,0.47,1.523.34,1.654,1.08l0.315-.14a0.362,0.362,0,0,1,.236.4,9.637,9.637,0,0,1-2.336,1.14,9.934,9.934,0,0,0-.552,2.97c0.578,1.43,1.891-.02,2.967.24,0.237,0.05.5,0.48,0.736,0.13,0.42,0.06.971-.37,1.208,0.14a0.592,0.592,0,0,0,.761-0.27,20.69,20.69,0,0,1,3.283-.5c1.628-.5,3.02.29,4.333,0.95,1.418,0.63,3.125.9,4.36,1.72l-0.079.18h0.184c1.365-.05,2.7,1.16,3.912.71-0.026.56-.682,0.85-0.629,1.45-1,1.95.525,3.8,0.629,5.75,1.156,2.48,2.5,4.85,3.467,7.41a1.1,1.1,0,0,0,.263.95c0.262,0.95.6,2.51-.185,3.3-2.021,1.56-4.49,1.98-6.565,3.35-2.7,1.56-5.829,2.19-8.377,4.11-0.262.06-.5,0.48-0.761,0.14l-0.5.76c-0.526.84-1.471,0.92-2.207,1.37-2.517-.02-3.51,2.21-4.95,3.95-0.612-.16-1.272-0.35-1.991-0.56-2.692-.79-6.106-7.57-11.31-4.59-4.39,2.51-2.381-4.77-10.531-5.64-8.768-.93-23.77,18.48-24.941,19.7h106.1c-16.324-8.82-19.628-5.06-23.691-5.2-2.322-.07-6.928-2.21-11.216-3.94l0.045-.47c0.5-1.06-.525-2.8.63-3.75a2.132,2.132,0,0,1,1.523-.18c0.972-.32,1.392.87,2.312,0.44a3.768,3.768,0,0,0,1.575-1.39c2.074-2.11,4.228-3.51,6.434-5.38a23.58,23.58,0,0,0,3.966-2.54l0.262,0.06c-0.578,1.08-1.729,1.71-2.517,2.68a3.3,3.3,0,0,0-.95,1.75,1.231,1.231,0,0,1,.946-0.56c-1.983,1.95-2.5,4.08-2.149,3.56a2.185,2.185,0,0,1,.957-0.74,4.89,4.89,0,0,0-.962,2.7c1.208-3.22,4.806-3.27,7.012-5.07-0.367.85-.844,0.99-1.077,2.53a12.085,12.085,0,0,1,3.78-2.61c3.2-1.72,4.81-3.93,7.25-5.93l1.31-1.72h0.21c1.5-1.18,2.42-2.98,3.71-4.43,0.57-1.45,1.44-2.77,2.07-4.19,1.45-4.07,2.24-6.43,1.79-10.65A10.4,10.4,0,0,0,1015.83,1124.82Zm-71.222-48.74c-1.785-.52-2.4-2.42-3.466-3.85-0.8-2.15-1.9-4.69-1.47-7.19-0.03.5,0.67,1.58,0.525,2.11,1.208,2.69.875,3.7,4.044,7.8C944.293,1075.35,944.766,1075.79,944.608,1076.08Zm2.2-2.68a3,3,0,0,1-.93,1.36c-1.669-1.33-.646-0.77-2.082-2.21a22.229,22.229,0,0,1-2.7-6.41c0.026-.55-0.389-1.8,0-2.3a4.825,4.825,0,0,0,.678-0.36l0.9-.04,3.011,0.25c1.233,0.37,1.913,1.4,3.029,1.93a22.473,22.473,0,0,0,2.858.84C951.688,1066.42,947.91,1071.92,946.806,1073.4Zm26.926,15.79c-0.578-.05-0.551.85-0.893,1.27a0.526,0.526,0,0,1-.368.76c-1.654-.37-2.284-2.34-4.175-2.29a2.74,2.74,0,0,0-1.314.95c-1.969-.32-2-2.4-3.151-3.62a3.14,3.14,0,0,0,2.154-.05,1.469,1.469,0,0,0,.762.77c0.367-.03.84-0.64,1.234-0.14l1.114-.19c0.735-.63.964-1.79,2.922-0.92,1.021,0.44,1.858.02,2.856,0.52C975.056,1087.2,974,1088.35,973.732,1089.19Zm6.618,68.15c-1.419.72-2.784,1.72-4.36,1.85a3.458,3.458,0,0,1-1.89,1c-0.558.91-1.3,1.7-1.842,2.57a4.754,4.754,0,0,0-1.6-.01c-4.267.84-5.048,2.27-6.517,2.96-0.046-.17-0.093-0.35-0.129-0.51,0.21-.73.053-1.68,0.946-2.08a1.975,1.975,0,0,1,1.575.37c0.42-.53,1.471.1,1.524-0.87a23.2,23.2,0,0,0,3.387-1.98c0.289-.63,1.024-0.37,1.392-0.87a6.469,6.469,0,0,1,2.285-.76c1.1-1.01,2.573-1.19,3.781-1.98,0.631,0.02,1.471-.71,2.206-0.82A2.866,2.866,0,0,0,980.35,1157.34Zm8.508-6.64a21.22,21.22,0,0,0-1.26-3.8,13.1,13.1,0,0,0-.578-2.59c0.893,1.72,2.863,2.98,2.837,5.07A6.009,6.009,0,0,1,988.858,1150.7Zm20.8-19.49a12.815,12.815,0,0,1-2.08,3.11l-0.08.31c-1.99,2.48-6.49,4.18-6.81,4.47-0.05.16,0.31,0.18,0.62,0.31l0.43,0.28c0.09,0.71-2.933,1.62-2.876,1.72a9.773,9.773,0,0,0,2.6-.31c-1.13.87-2.465,1.26-3.594,2.13l-0.482.4c-0.131.79,3.446-.53,0.928,1.37a1.31,1.31,0,0,1,.053.45,2.541,2.541,0,0,1-1.261.82c-0.525.02-.844,0.86-1.26-0.74a5.944,5.944,0,0,0-.946-1.22c-0.367-1.76-2.757-2.95-2.389-4.93,0.183-.58,1.05-0.29,1-1.03a24.562,24.562,0,0,0,9.534-7.96,9.788,9.788,0,0,1,1.08-2.08,26.967,26.967,0,0,0,1.26-6.2,6.247,6.247,0,0,1,2.77,1.81C1010.09,1125.82,1010.24,1128.6,1009.66,1131.21Zm-118.67-32.9c-0.528.05-.59,0.16-0.728,0.93l-0.091.52a0.521,0.521,0,0,1-.432.51,0.456,0.456,0,0,1-.539-0.51l-1.2-11.39,2.569-.51a5.41,5.41,0,0,1,.62-0.12,0.725,0.725,0,0,1,.914.61,0.679,0.679,0,0,1-.433.73l-1.2.84a0.666,0.666,0,0,0-.373.84l0.463,4.42,5.55-.59-0.38-3.62a0.716,0.716,0,0,0-.467-0.75l-0.8-.16a0.752,0.752,0,0,1-.754-0.71c-0.03-.28.079-0.64,0.824-0.72l3.844-.4a0.67,0.67,0,0,1,.845.64,0.7,0.7,0,0,1-.6.75l-0.72.32a0.836,0.836,0,0,0-.331,1.01l0.363,3.45,5.982-.64c0.529-.05.591-0.16,0.728-0.93l0.092-.52a0.521,0.521,0,0,1,.432-0.51,0.456,0.456,0,0,1,.539.51l0.592,5.64a0.456,0.456,0,0,1-.422.61,0.512,0.512,0,0,1-.528-0.41l-0.2-.49c-0.295-.73-0.377-0.81-0.9-0.76Zm-0.511-19.28,0.274-2.04c0.242-1.8,1.6-2.45,3.249-2.23a3.036,3.036,0,0,1,2.872,3.67l-0.194,1.44Zm12.893,4.93c0.527,0.07.586,0.18,0.7,0.95l0.077,0.53a0.521,0.521,0,0,0,.417.52,0.458,0.458,0,0,0,.553-0.49l0.729-5.43a0.454,0.454,0,0,0-.405-0.62,0.513,0.513,0,0,0-.54.39l-0.211.49c-0.29.52-.375,0.61-0.9,0.54l-5.292-.72,0.226-1.68,7.678-2.54,0.554-4.14a0.432,0.432,0,0,0-.369-0.51,0.664,0.664,0,0,0-.614.58l-0.208.46a1.04,1.04,0,0,1-.756.73l-6.749,2.15a4.848,4.848,0,0,0-4.033-3.56c-3.28-.45-4.844,1.77-5.209,4.48l-0.948,7.07a0.454,0.454,0,0,0,.4.62,0.5,0.5,0,0,0,.541-0.39l0.211-.49c0.316-.71.4-0.8,0.927-0.73Zm-9.764-19.53c-0.492-.2-0.6-0.14-1.08.47l-0.326.42a0.5,0.5,0,0,1-.621.24,0.457,0.457,0,0,1-.238-0.7l4.31-10.6,2.507,0.77a5.352,5.352,0,0,1,.6.19,0.726,0.726,0,0,1,.518.97,0.682,0.682,0,0,1-.725.44l-1.451.16a0.672,0.672,0,0,0-.726.57l-1.671,4.11,5.168,2.12,1.369-3.37a0.731,0.731,0,0,0-.057-0.89l-0.624-.52a0.737,0.737,0,0,1-.334-0.97c0.109-.27.371-0.53,1.065-0.25l3.579,1.47a0.677,0.677,0,0,1,.442.97,0.686,0.686,0,0,1-.882.37l-0.785-.06a0.836,0.836,0,0,0-.768.73l-1.305,3.22,4.876,2c0.515,0.21.792,0.29,1.039-.31l1.424-3.51a1.049,1.049,0,0,0-.118-1.12l-1.114-1.82a0.876,0.876,0,0,1-.182-0.83,0.8,0.8,0,0,1,.864-0.46,3.621,3.621,0,0,1,.653.45l2.62,1.96-4.365,10.74a0.457,0.457,0,0,1-.657.34,0.52,0.52,0,0,1-.274-0.61l0.058-.53c0.081-.78.051-0.9-0.442-1.1Zm7.552-15.88c-0.428-.32-0.543-0.28-1.163.19l-0.419.32a0.5,0.5,0,0,1-.661.09,0.459,0.459,0,0,1-.058-0.74l6.778-9.21,2.242,1.36a5.906,5.906,0,0,1,.534.34,0.725,0.725,0,0,1,.263,1.07,0.676,0.676,0,0,1-.81.24l-1.446-.2a0.676,0.676,0,0,0-.843.37l-2.628,3.57,4.488,3.34,2.154-2.93a0.735,0.735,0,0,0,.163-0.88l-0.478-.65a0.749,0.749,0,0,1-.085-1.03c0.173-.23.491-0.42,1.093,0.03l3.108,2.3a0.705,0.705,0,1,1-.755,1.19l-0.746-.25a0.825,0.825,0,0,0-.924.52l-2.054,2.79,4.236,3.15c0.447,0.33.694,0.48,1.082-.05l2.241-3.04a1.059,1.059,0,0,0,.161-1.12L916,1047.28a0.875,0.875,0,0,1,.028-0.85,0.812,0.812,0,0,1,.95-0.23,4.054,4.054,0,0,1,.522.6l2.057,2.55-6.865,9.33a0.455,0.455,0,0,1-.719.16,0.52,0.52,0,0,1-.116-0.66l0.186-.5c0.27-.73.269-0.85-0.158-1.17Zm13.733-15.79,1.579-1.25c2.987-2.34,6.248-.29,8.274,2.31,2.309,2.96,2.864,6.19.03,8.42l-0.628.5c-0.552.43-.957,0.66-1.553-0.11Zm5.81,12.56c0.328,0.42.3,0.54-.159,1.18l-0.311.42a0.525,0.525,0,0,0-.063.67,0.453,0.453,0,0,0,.735.04l4.718-3.71c4.755-3.74,4.714-8.52,1.586-12.53-2.443-3.13-6.923-5.22-12.192-1.07l-4.718,3.71a0.451,0.451,0,0,0-.14.72,0.511,0.511,0,0,0,.66.1l0.489-.2c0.724-.29.844-0.29,1.172,0.13Zm22.4-20.93c1.144,3.09,1.515,7.51-2.222,8.91-3.488,1.3-6.058-1.47-7.186-4.52-1.144-3.09-1.25-7.35,2.464-8.74C939.559,1018.78,942.028,1021.48,943.105,1024.39Zm-12.716,5.34c1.725,4.66,6.224,7.28,11.026,5.49,4.892-1.83,6.841-6.8,5.057-11.62-1.775-4.8-6.312-7.17-11.159-5.36A8.805,8.805,0,0,0,930.389,1029.73Zm23.874-11.59h-0.049l-0.677,10.58c0,0.15-.044.68-0.042,0.85a0.567,0.567,0,0,0,.486.55l0.9,0.29a0.452,0.452,0,0,1,.415.55c0,0.25-.046.42-0.6,0.42l-4.928.03a0.437,0.437,0,0,1-.487-0.5c0-.29.167-0.37,0.5-0.47l0.459-.14c0.723-.23.77-0.33,0.837-1.22l0.975-12.99a0.775,0.775,0,0,0-.658-0.85l-0.339-.14a2.034,2.034,0,0,1-.509-0.24,0.533,0.533,0,0,1-.123-0.27,0.479,0.479,0,0,1,.577-0.46l4.276-.03,4.8,12.85,5.01-12.92,4.542-.03a0.358,0.358,0,0,1,.438.36c0,0.37-.094.42-0.215,0.47l-0.722.29a0.776,0.776,0,0,0-.7.69c0,0.12.026,0.29,0.027,0.46l1.006,13.07a0.594,0.594,0,0,0,.488.67l0.945,0.29a0.484,0.484,0,0,1,.389.48c0,0.49-.31.49-0.6,0.49l-5.485.04c-0.314,0-.556-0.05-0.559-0.46a0.471,0.471,0,0,1,.456-0.51l0.94-.3a0.827,0.827,0,0,0,.43-0.73c0-.27-0.054-0.82-0.081-1.31l-0.672-10.09h-0.049l-5.1,13.43-1.45.01Zm39.223,5.86,1.793,1c1.582,0.89,1.687,2.4.874,3.86a3.019,3.019,0,0,1-4.452,1.34l-1.265-.71Zm-9.291,10.24c-0.259.47-.379,0.48-1.138,0.31l-0.514-.12a0.5,0.5,0,0,0-.637.2,0.45,0.45,0,0,0,.25.69l4.768,2.67a0.445,0.445,0,0,0,.72-0.15,0.522,0.522,0,0,0-.165-0.65l-0.372-.37c-0.38-.46-0.429-0.57-0.169-1.04l2.6-4.68,1.476,0.83-0.465,8.1,3.629,2.03a0.431,0.431,0,0,0,.612-0.15,0.667,0.667,0,0,0-.31-0.79l-0.351-.36a1.043,1.043,0,0,1-.4-0.98l0.485-7.09a4.842,4.842,0,0,0,4.773-2.46c1.61-2.91.138-5.18-2.246-6.52l-6.2-3.47a0.446,0.446,0,0,0-.721.15,0.522,0.522,0,0,0,.165.65l0.373,0.37c0.547,0.56.6,0.67,0.337,1.14Zm21.125-2.25c0.34-.4.32-0.52-0.11-1.17l-0.29-.45a0.518,0.518,0,0,1-.04-0.67,0.458,0.458,0,0,1,.74,0l4.29,3.69a0.452,0.452,0,0,1,.11.73,0.5,0.5,0,0,1-.66.07l-0.48-.22c-0.71-.32-0.83-0.33-1.18.08l-8.675,10.17c-0.346.4-.32,0.52,0.107,1.18l0.291,0.44a0.521,0.521,0,0,1,.035.67,0.45,0.45,0,0,1-.737,0l-4.293-3.69a0.455,0.455,0,0,1-.108-0.73,0.5,0.5,0,0,1,.663-0.07l0.48,0.22c0.71,0.32.831,0.33,1.176-.07Zm10.09,9.96,1.21,1.61c2.27,3.05.16,6.28-2.47,8.26-3,2.26-6.22,2.75-8.38-.14l-0.48-.64c-0.42-.56-0.64-0.97.13-1.56Zm-12.63,5.58c-0.42.32-.54,0.28-1.16-0.19l-0.42-.32a0.509,0.509,0,0,0-.66-0.07,0.451,0.451,0,0,0-.06.73l3.6,4.82c3.62,4.85,8.38,4.91,12.44,1.85,3.17-2.39,5.33-6.85,1.32-12.22l-3.6-4.82a0.453,0.453,0,0,0-.72-0.15,0.523,0.523,0,0,0-.11.66l0.19,0.49c0.27,0.74.27,0.86-.15,1.18Zm21.84,9.1c0.5-.2.53-0.32,0.46-1.1l-0.05-.52a0.517,0.517,0,0,1,.28-0.61,0.449,0.449,0,0,1,.65.34l4.16,10.67-2.34,1.18c-0.18.09-.37,0.2-0.57,0.28a0.719,0.719,0,0,1-1.04-.35,0.682,0.682,0,0,1,.22-0.82l0.94-1.12a0.69,0.69,0,0,0,.14-0.92l-1.61-4.13-5.2,2.04,1.32,3.39a0.714,0.714,0,0,0,.65.6l0.81-.05a0.737,0.737,0,0,1,.91.47c0.1,0.27.09,0.64-.61,0.92l-3.6,1.41a0.665,0.665,0,0,1-.98-0.39,0.689,0.689,0,0,1,.38-0.88l0.61-.5a0.841,0.841,0,0,0,.06-1.07l-1.26-3.23-4.91,1.93c-0.52.2-.78,0.33-0.54,0.94l1.37,3.53a1.07,1.07,0,0,0,.86.73l2.06,0.55a0.854,0.854,0,0,1,.7.47,0.809,0.809,0,0,1-.31.93,3.471,3.471,0,0,1-.78.13l-3.25.39-4.21-10.8a0.461,0.461,0,0,1,.25-0.7,0.516,0.516,0,0,1,.62.25l0.32,0.42c0.47,0.63.58,0.69,1.07,0.49Zm5.92,19.9,0.24,2.05c0.22,1.81-.93,2.78-2.59,2.98a3.022,3.022,0,0,1-3.69-2.83l-0.17-1.45Zm-13.71-1.53c-0.53.07-.61-0.02-0.92-0.74l-0.2-.49a0.519,0.519,0,0,0-.54-0.4,0.454,0.454,0,0,0-.41.61l0.65,5.45a0.445,0.445,0,0,0,.54.49,0.51,0.51,0,0,0,.43-0.51l0.08-.52c0.15-.58.21-0.69,0.74-0.75l5.3-.64,0.2,1.69-6.8,4.38,0.5,4.15a0.425,0.425,0,0,0,.48.4,0.662,0.662,0,0,0,.45-0.71l0.09-.5a1.022,1.022,0,0,1,.55-0.9l6-3.77a4.847,4.847,0,0,0,4.79,2.43c3.28-.4,4.25-2.94,3.92-5.66l-0.84-7.08a0.462,0.462,0,0,0-.55-0.5,0.514,0.514,0,0,0-.42.52l-0.09.52c-0.12.77-.18,0.88-0.71,0.94Zm3.38,13.26a1.615,1.615,0,0,1,.39.02,0.825,0.825,0,0,1,.54.99,0.7,0.7,0,0,1-.58.59l-2.2.8c-0.89.32-1.11,1.47-1.2,2.26a2.633,2.633,0,0,0,2.14,3.07c3.86,0.44,4.18-7.17,9.55-6.56,3.1,0.35,4.42,3.33,4.11,6.1a7.871,7.871,0,0,1-1.57,4.03l-2.6.04a1.91,1.91,0,0,1-.41-0.02,0.756,0.756,0,0,1-.56-0.89,0.9,0.9,0,0,1,.82-0.81l1.36-.41c0.38-.13.94-0.41,1.11-1.93,0.16-1.39-.4-2.87-2.04-3.06-3.09-.35-4.17,7.32-9.09,6.76-3.48-.39-5.12-3.55-4.77-6.73a7.762,7.762,0,0,1,1.66-4.16Z" transform="translate(-854 -980)"/>
</svg>
